<svg
   xmlns:dc="http://purl.org/dc/elements/1.1/"
   xmlns:cc="http://creativecommons.org/ns#"
   xmlns:rdf="http://www.w3.org/1999/02/22-rdf-syntax-ns#"
   xmlns:svg="http://www.w3.org/2000/svg"
   xmlns="http://www.w3.org/2000/svg"
   xmlns:sodipodi="http://sodipodi.sourceforge.net/DTD/sodipodi-0.dtd"
   xmlns:inkscape="http://www.inkscape.org/namespaces/inkscape"
   width="138.13109"
   height="199.32816"
   viewBox="0 0 1.5674822 3.2604316"
   version="1.1"
   id="SVGRoot"
   sodipodi:docname="grass blades - Copy - Copy.svg"
   inkscape:version="1.0.1 (3bc2e813f5, 2020-09-07)">
  <g
     inkscape:groupmode="layer"
     id="paths"
     transform="translate(-2.2155875,-7.0664977)">
    <path
       id="colors"
       style="fill:#a3f273;fill-opacity:1;stroke:none;stroke-width:0.0471084;stroke-linecap:square;stroke-miterlimit:4;stroke-dasharray:none;stop-color:#000000"
       d="m 2.7956305,7.4024827 c -0.00486,1.693e-4 -0.00975,0.00129 -0.014408,0.00345 -0.031881,0.02346 -0.00983,0.066851 -0.011533,0.099357 0.051913,0.5341653 0.097875,1.0687703 0.119196,1.6049765 0.00318,0.050469 0.00551,0.1036782 0.023322,0.1512713 -0.033846,-0.050411 -0.073723,-0.096385 -0.122199,-0.1342432 -0.08245,-0.06528 -0.1827968,-0.1130526 -0.2884536,-0.1216241 -0.024015,-0.00102 -0.048043,-8.129e-4 -0.072074,-7.671e-4 -0.1864321,1.309e-4 -0.3741161,0.099794 -0.465762,0.2645568 -0.064517,0.1123096 -0.093996,0.2580489 -0.035142,0.3788011 0.023006,0.03869 0.048603,0.078805 0.084245,0.1066406 0.031366,0.016318 0.060966,-0.025111 0.041915,-0.052266 -0.018588,-0.046761 -0.045425,-0.090766 -0.055397,-0.1406008 0.0393,-0.00421 0.037253,-0.05305 0.053416,-0.08022 0.060345,-0.1209295 0.1982254,-0.2021473 0.3341385,-0.1839215 0.058688,0.00527 0.1165909,0.028753 0.1548174,0.075045 0.07707,0.080281 0.1143621,0.1926309 0.1172472,0.3025743 0.013929,0.1879497 0.00189,0.3790814 0.00655,0.5682494 -0.00178,0.02788 0.00984,0.06869 0.045621,0.06022 0.1090862,-0.01521 0.2194932,-0.0079 0.3312313,-0.01038 0.027772,0.0052 0.06629,-0.0063 0.061147,-0.04124 2.372e-4,-0.01936 4.384e-4,-0.03888 6.706e-4,-0.05834 4.91e-5,0.01433 -9.81e-5,0.02867 2.879e-4,0.04297 0.00177,0.04671 0.064969,0.06297 0.098206,0.04096 0.00432,-0.0051 0.007,-0.01079 0.00904,-0.01671 0.0043,0.01678 0.013724,0.03138 0.031915,0.03847 0.039026,0.01068 0.080539,-0.0013 0.1201225,-0.0042 0.010494,-0.0026 0.018391,-0.0074 0.024536,-0.0137 0.00224,0.0024 0.00472,0.0047 0.0078,0.0067 0.078859,0.0065 0.1589877,9.16e-4 0.238328,0.0028 0.041203,-0.004 0.032488,-0.05153 0.032746,-0.08092 C 3.6655803,9.8360505 3.7444503,9.4610425 3.883221,9.1137955 3.906677,9.0482945 3.938775,8.9859305 3.959511,8.919555 3.961671,8.906041 3.954311,8.892763 3.943058,8.885819 3.951258,8.874739 3.959483,8.863568 3.967658,8.852498 3.980139,8.828329 3.958238,8.798761 3.931462,8.803714 3.876839,8.824911 3.834892,8.86962 3.790446,8.9065529 3.6665871,9.0171772 3.5552148,9.1428467 3.4713512,9.2867435 3.4545188,9.3147025 3.4387962,9.34324 3.4237176,9.3720751 3.4366536,9.3071294 3.4270001,9.2382729 3.4156349,9.1733299 3.3261467,8.6174762 3.1849937,8.0652116 2.93949,7.5564051 2.91905,7.5201781 2.907913,7.4765861 2.87847,7.4466016 2.8708,7.4454416 2.863335,7.4405716 2.855468,7.4421316 2.848828,7.4436616 2.843689,7.4463916 2.83975,7.4499316 2.83651,7.4415016 2.83344,7.4330076 2.83013,7.4245976 2.82438,7.4100666 2.810203,7.4019826 2.795627,7.4024896 Z M 3.2516486,9.867389 c -0.014925,0.074492 -0.025959,0.149797 -0.033066,0.225389 0.00134,-0.07254 0.00235,-0.1450725 0.00303,-0.2176258 0.010462,0.00195 0.021997,-7e-4 0.030031,-0.00776 z M 3.1030929,9.965276 c 0.00149,0.028009 0.00178,0.056195 0.00176,0.084437 -2.127e-4,-0.02815 -8.833e-4,-0.0563 -0.00176,-0.084437 z m 0.00176,0.089612 c -3.27e-5,0.01374 8.18e-5,0.02747 -9.82e-5,0.04124 1.64e-5,-0.01375 1.832e-4,-0.02748 9.82e-5,-0.04124 z" />
    <path
       id="lines"
       style="fill:#000000;fill-opacity:1;stroke-width:0.0471084;stroke-linecap:square;stop-color:#000000"
       d="m 2.6836872,7.0664977 c 0.069665,0.528275 0.1203864,1.0605053 0.1518465,1.593036 0.00691,0.1613222 0.026537,0.322964 0.017174,0.4844797 C 2.7307332,9.0314836 2.56582,8.9620358 2.3982154,8.9793076 2.1315757,8.9883136 1.8858772,9.2123037 1.8706792,9.4815595 c -0.014452,0.1765268 0.1206334,0.3237568 0.2723431,0.3923928 0.028432,0.00961 0.066757,0.041853 0.094766,0.035273 C 2.163539,9.7986525 2.0589798,9.687814 2.066233,9.5445406 2.069763,9.4307722 2.181524,9.3594145 2.2787348,9.3274666 c 0.1027122,-0.020136 0.2311363,0.00479 0.2798898,0.1085737 0.058003,0.079546 0.08285,0.1763 0.076759,0.2740263 0.00665,0.2031059 -0.00191,0.4089564 0.013673,0.6104454 0.090305,0.01681 0.185904,-0.0053 0.2780343,-4.9e-5 0.2526993,-0.004 0.5058144,-0.0018 0.7582905,-0.0029 C 3.6723201,9.7410602 3.8282812,9.1611686 4.129041,8.6699909 3.8884041,8.7588579 3.6939037,8.9430341 3.5394416,9.143378 3.5104009,9.1706511 3.4977912,9.2252397 3.4617343,9.2408427 3.4319043,9.1531456 3.4329494,9.0549935 3.4113493,8.9641478 3.3046014,8.3926388 3.132949,7.8270043 2.8496601,7.3170085 2.7971161,7.2323266 2.7482926,7.1419418 2.6836872,7.0664977 Z m 0.1094183,0.3494261 c 0.089227,0.22764 0.1571208,0.4646879 0.2225109,0.7005814 0.1327958,0.4834234 0.1766191,0.9859345 0.1743088,1.4858752 7.639e-4,0.2163439 -0.0037,0.4326576 -0.00595,0.6489806 -0.079674,0.02371 -0.040806,-0.06549 -0.045794,-0.1132 C 3.14201,9.8325456 3.1073277,9.5114475 2.9388069,9.2483271 2.9090276,9.1180943 2.9230401,8.9811001 2.9091886,8.8483739 2.8831767,8.3699675 2.8424427,7.8921633 2.7931055,7.4159238 Z m 0.058868,0.037697 c 0.2859382,0.5515084 0.446103,1.16059 0.5388839,1.7725253 0.018829,0.081144 0.00697,0.1653031 -0.03766,0.2362988 C 3.2944891,9.5854636 3.2596159,9.7176139 3.2274553,9.849531 3.2201492,9.3991253 3.2292128,8.9445607 3.1363279,8.5011786 3.0713233,8.1452935 2.9633041,7.7994511 2.8521022,7.4559343 c 0.00136,0.00395 -9.007e-4,-0.00309 -1.293e-4,-0.00231 z m 1.0939813,1.373669 C 3.8497088,8.9655375 3.7382399,9.0972868 3.6547328,9.2456329 3.4844268,9.5232377 3.3883633,9.8442956 3.379822,10.16989 3.368528,10.20139 3.394337,10.273668 3.338655,10.26548 3.296124,10.265269 3.2212288,10.29608 3.243522,10.22532 3.255266,9.7790596 3.4087802,9.3229016 3.7320209,9.0055058 c 0.067089,-0.062676 0.1346068,-0.1322792 0.213934,-0.17822 z m -0.01054,0.074053 C 3.8251026,9.1550546 3.7282864,9.4168065 3.6813221,9.6906667 3.6452403,9.8784753 3.633735,10.069817 3.6333075,10.260763 H 3.4127447 C 3.3944611,9.8284212 3.5568631,9.4044986 3.8137104,9.0615941 3.8535494,9.0080501 3.889413,8.9495228 3.9354148,8.9013428 Z M 2.4542925,9.034852 c 0.2078245,0.00137 0.393598,0.1420055 0.4788686,0.3271823 0.1511064,0.2736739 0.1417397,0.5957833 0.1404401,0.8987287 -0.1249697,0.0033 -0.2513983,-0.0076 -0.375353,0.01181 -0.00576,-0.23226 0.013003,-0.4663707 -0.015901,-0.6973691 C 2.6568746,9.4737065 2.605512,9.3697188 2.5191851,9.3072566 2.4242245,9.2497078 2.3249998,9.2583288 2.2501454,9.2748967 2.1337343,9.3127495 2.0288488,9.4065488 2.0021318,9.5292452 1.9888878,9.5437562 1.9978918,9.4935342 1.9962918,9.4866372 2.0078778,9.2560628 2.263295,9.100445 2.4790874,9.1446656 c 0.1999533,0.032201 0.3298513,0.2187611 0.3788443,0.4028282 0.06395,0.210749 0.04523,0.4345061 0.032324,0.6509852 -0.010155,0.01908 -0.00418,0.05847 0.024036,0.04036 0.025916,-0.08363 0.018304,-0.176734 0.025064,-0.2640622 C 2.9428211,9.7179232 2.914312,9.42993 2.7251667,9.2375487 2.5665811,9.0704794 2.280572,9.0611912 2.1075875,9.2117197 1.9724799,9.3086956 1.9194419,9.5018368 1.9953379,9.6516454 c 0.023143,0.048944 0.062401,0.1185965 0.00174,0.0399 C 1.8880252,9.5694012 1.9229034,9.3840625 2.0078239,9.2589036 2.1004185,9.1106858 2.2836732,9.0330235 2.4542925,9.034852 Z"
       sodipodi:nodetypes="ccccccccccccccccccccccccccccccccccccccccccccccccccccccccccccccccccccc" />
  </g>
</svg>
